<?xml version="1.0" encoding="utf-8"?>
<!-- Generator: Adobe Illustrator 16.0.0, SVG Export Plug-In . SVG Version: 6.00 Build 0)  -->
<!DOCTYPE svg PUBLIC "-//W3C//DTD SVG 1.1//EN" "http://www.w3.org/Graphics/SVG/1.1/DTD/svg11.dtd" [
	<!ENTITY ns_extend "http://ns.adobe.com/Extensibility/1.0/">
	<!ENTITY ns_ai "http://ns.adobe.com/AdobeIllustrator/10.0/">
	<!ENTITY ns_graphs "http://ns.adobe.com/Graphs/1.0/">
	<!ENTITY ns_vars "http://ns.adobe.com/Variables/1.0/">
	<!ENTITY ns_imrep "http://ns.adobe.com/ImageReplacement/1.0/">
	<!ENTITY ns_sfw "http://ns.adobe.com/SaveForWeb/1.0/">
	<!ENTITY ns_custom "http://ns.adobe.com/GenericCustomNamespace/1.0/">
	<!ENTITY ns_adobe_xpath "http://ns.adobe.com/XPath/1.0/">
]>
<svg version="1.1" id="Layer_1" xmlns:x="&ns_extend;" xmlns:i="&ns_ai;" xmlns:graph="&ns_graphs;"
	 xmlns="http://www.w3.org/2000/svg" xmlns:xlink="http://www.w3.org/1999/xlink" x="0px" y="0px" width="282.888px"
	 height="282.888px" viewBox="0 0 282.888 282.888" enable-background="new 0 0 282.888 282.888" xml:space="preserve">
<metadata>
	<sfw  xmlns="&ns_sfw;">
		<slices></slices>
		<sliceSourceBounds  width="282.889" height="282.888" x="794.547" y="-744.785" bottomLeftOrigin="true"></sliceSourceBounds>
	</sfw>
</metadata>
<g>
	<path fill="#F44336" d="M282.888,61.497C282.888,27.673,255.214,0,221.391,0H61.498C27.674,0,0,27.673,0,61.497V221.39
		c0,33.824,27.674,61.498,61.498,61.498h159.894c33.823,0,61.497-27.674,61.497-61.498V61.497z"/>
	<g>
		<g>
			<path fill="#FFFFFF" d="M49.71,140.22c0-8.695,7.046-15.74,15.738-15.74c8.69,0,15.735,7.045,15.735,15.74
				c0,8.686-7.045,15.732-15.735,15.732C56.756,155.953,49.71,148.906,49.71,140.22z"/>
		</g>
		<g>
			<path fill="#FFFFFF" d="M201.707,140.22c0-8.695,7.045-15.74,15.736-15.74s15.735,7.045,15.735,15.74
				c0,8.686-7.044,15.732-15.735,15.732S201.707,148.906,201.707,140.22z"/>
		</g>
		<g>
			<circle fill="#FFFFFF" cx="141.836" cy="214.998" r="15.736"/>
		</g>
		<path fill="#FFFFFF" d="M121.264,203.414c-20.422-6.645-36.51-22.895-42.896-43.434c-3.713,2.436-8.148,3.855-12.92,3.855
			c-3.164,0-6.175-0.627-8.933-1.756c8.01,31.34,32.836,55.941,64.296,63.656c-1.647-3.225-2.598-6.871-2.598-10.738
			C118.213,210.785,119.33,206.835,121.264,203.414z"/>
		<path fill="#FFFFFF" d="M205.173,160.373c-6.471,20.352-22.474,36.439-42.764,43.041c1.934,3.422,3.05,7.371,3.05,11.584
			c0,3.873-0.947,7.514-2.597,10.738c31.592-7.742,56.489-32.521,64.39-64.051c-2.989,1.369-6.304,2.15-9.81,2.15
			C212.945,163.835,208.751,162.556,205.173,160.373z"/>
		<path fill="#FFFFFF" d="M78.368,120.451c8.415-27.048,33.648-46.693,63.468-46.693c3.26,0,6.458,0.246,9.588,0.699v36.087
			c-3.023-0.977-6.24-1.515-9.588-1.515c-17.227,0-31.191,13.957-31.191,31.191c0,17.223,13.964,31.188,31.191,31.188
			c17.229,0,31.192-13.965,31.192-31.188V81.531c15.181,8.087,26.824,21.896,32.118,38.541c3.585-2.191,7.786-3.479,12.297-3.479
			c3.506,0,6.82,0.785,9.81,2.148c-9.588-38.251-44.188-66.586-85.417-66.586c-41.087,0-75.597,28.14-85.321,66.2
			c2.758-1.129,5.77-1.762,8.933-1.762C70.22,116.593,74.654,118.019,78.368,120.451z"/>
	</g>
</g>
</svg>
