<?xml version="1.0" encoding="utf-8"?>
<!-- Generator: Adobe Illustrator 16.0.0, SVG Export Plug-In . SVG Version: 6.00 Build 0)  -->
<!DOCTYPE svg PUBLIC "-//W3C//DTD SVG 1.1//EN" "http://www.w3.org/Graphics/SVG/1.1/DTD/svg11.dtd">
<svg version="1.1" id="Layer_1" xmlns="http://www.w3.org/2000/svg" xmlns:xlink="http://www.w3.org/1999/xlink" x="0px" y="0px"
	 width="418.109px" height="268.14px" viewBox="0 0 418.109 268.14" enable-background="new 0 0 418.109 268.14"
	 xml:space="preserve">
<g>
	<g>
		<path fill="#D32F2F" d="M16.108,266.21c-3.193-1.287-5.987-3.111-8.384-5.477c-2.434-2.359-4.331-5.094-5.687-8.197
			C0.68,249.433,0,246.118,0,242.591c0-3.561,0.669-6.938,2.011-10.129c1.34-3.191,3.227-5.986,5.66-8.385
			c2.432-2.396,5.236-4.258,8.411-5.582c3.174-1.32,6.559-1.982,10.156-1.982c3.419,0,6.665,0.6,9.733,1.797
			c3.069,1.201,5.714,2.912,7.935,5.133c1.41,1.445,2.116,3.068,2.116,4.865c0,1.693-0.706,3.121-2.116,4.285
			c-0.6,0.494-1.243,0.871-1.931,1.139c-0.688,0.264-1.313,0.395-1.877,0.395c-1.094,0-2.204-0.35-3.332-1.057
			c-0.53-0.316-1.464-0.986-2.805-2.01c-1.411-0.988-2.803-1.668-4.18-2.037c-1.374-0.369-2.926-0.555-4.653-0.555
			c-1.834,0.07-3.545,0.502-5.132,1.297c-1.585,0.793-2.98,1.842-4.18,3.146c-1.163,1.305-2.081,2.777-2.749,4.416
			c-0.671,1.641-1.006,3.307-1.006,5c0,1.729,0.335,3.43,1.006,5.104c0.668,1.676,1.604,3.166,2.802,4.473
			c1.234,1.338,2.689,2.398,4.365,3.172c1.675,0.775,3.447,1.162,5.316,1.162c1.587,0,3.042-0.182,4.363-0.555
			c1.324-0.369,2.673-1.049,4.047-2.035c0.282-0.211,0.819-0.609,1.613-1.191c0.793-0.58,1.56-1.039,2.301-1.375
			c0.741-0.334,1.5-0.504,2.275-0.504c0.599,0,1.252,0.143,1.957,0.426c0.706,0.281,1.339,0.67,1.906,1.162
			c1.34,1.164,2.009,2.557,2.009,4.18c0,0.846-0.177,1.691-0.529,2.539c-0.352,0.846-0.881,1.623-1.587,2.326
			c-2.22,2.223-4.865,3.936-7.935,5.133c-3.068,1.197-6.313,1.797-9.733,1.797C22.676,268.14,19.299,267.499,16.108,266.21z"/>
		<path fill="#D32F2F" d="M67.181,266.132c-3.139-1.34-5.89-3.191-8.251-5.555c-2.399-2.398-4.259-5.158-5.582-8.279
			c-1.323-3.123-1.982-6.426-1.982-9.918s0.667-6.816,2.009-9.973c1.34-3.154,3.19-5.932,5.556-8.33
			c2.361-2.361,5.112-4.215,8.251-5.555c3.138-1.34,6.436-2.01,9.892-2.01c3.491,0,6.796,0.662,9.918,1.982
			c3.122,1.324,5.88,3.186,8.279,5.582c2.362,2.398,4.205,5.166,5.528,8.305c1.321,3.141,1.983,6.473,1.983,9.998v19.625
			c0,1.658-0.583,3.068-1.746,4.23c-1.129,1.201-2.539,1.801-4.231,1.801c-1.375,0-2.557-0.381-3.546-1.139
			c-0.986-0.758-1.658-1.771-2.009-3.041c-4.303,2.857-9.027,4.283-14.177,4.283C73.617,268.14,70.319,267.472,67.181,266.132z
			 M82.495,255.313c1.71-0.723,3.219-1.736,4.523-3.043c1.269-1.303,2.257-2.803,2.961-4.494c0.707-1.693,1.06-3.492,1.06-5.396
			s-0.353-3.703-1.06-5.395c-0.704-1.693-1.692-3.193-2.961-4.498c-1.271-1.27-2.769-2.266-4.497-2.988
			c-1.728-0.721-3.544-1.086-5.448-1.086c-1.87,0-3.65,0.354-5.344,1.061c-1.692,0.703-3.191,1.711-4.495,3.014
			c-1.305,1.305-2.31,2.805-3.016,4.498c-0.706,1.691-1.058,3.49-1.058,5.395s0.352,3.703,1.058,5.396
			c0.706,1.691,1.711,3.191,3.016,4.494c1.269,1.307,2.75,2.32,4.443,3.043s3.491,1.084,5.396,1.084
			C78.977,256.397,80.784,256.036,82.495,255.313z"/>
		<path fill="#D32F2F" d="M114.683,267.108c-0.739-0.299-1.374-0.713-1.904-1.242c-1.234-1.127-1.85-2.484-1.85-4.072v-20.262
			c0-3.42,0.634-6.646,1.903-9.682c1.271-3.031,3.051-5.713,5.344-8.039c2.257-2.326,4.884-4.125,7.881-5.396
			c2.998-1.268,6.206-1.902,9.628-1.902c3.419,0,6.665,0.645,9.734,1.93c3.066,1.289,5.747,3.078,8.041,5.369
			c2.325,2.326,4.134,5.02,5.42,8.066c1.288,3.053,1.931,6.271,1.931,9.654v20.262c0,1.621-0.547,2.979-1.64,4.072
			c-1.128,1.129-2.504,1.693-4.126,1.693c-1.656,0-3.051-0.564-4.179-1.693c-1.201-1.094-1.798-2.451-1.798-4.072v-20.209
			c-0.035-1.799-0.406-3.508-1.11-5.129c-0.707-1.623-1.677-3.033-2.911-4.232c-1.233-1.234-2.663-2.195-4.285-2.885
			c-1.62-0.686-3.313-1.031-5.077-1.031c-1.834,0-3.536,0.336-5.105,1.006c-1.571,0.67-2.955,1.605-4.152,2.805
			c-1.166,1.199-2.073,2.617-2.726,4.258c-0.651,1.641-0.978,3.359-0.978,5.156v20.262c0,1.621-0.546,2.979-1.639,4.072
			c-0.528,0.529-1.147,0.943-1.852,1.242c-0.706,0.301-1.447,0.451-2.222,0.451C116.199,267.56,115.423,267.409,114.683,267.108z"/>
		<path fill="#D32F2F" d="M183.9,266.157c-3.119-1.324-5.88-3.182-8.278-5.58c-2.397-2.363-4.267-5.113-5.606-8.254
			c-1.341-3.137-2.011-6.451-2.011-9.943s0.669-6.816,2.011-9.973c1.339-3.154,3.208-5.932,5.606-8.33
			c2.398-2.396,5.159-4.258,8.278-5.582c3.122-1.32,6.427-1.982,9.919-1.982s6.814,0.67,9.971,2.01
			c3.158,1.34,5.916,3.193,8.279,5.555c2.363,2.398,4.213,5.176,5.555,8.33c1.34,3.156,2.01,6.48,2.01,9.973
			s-0.662,6.795-1.984,9.918c-1.32,3.121-3.182,5.881-5.58,8.279c-2.363,2.363-5.121,4.215-8.279,5.555
			c-3.156,1.34-6.479,2.008-9.971,2.008S187.022,267.481,183.9,266.157z M199.294,255.313c1.711-0.723,3.219-1.736,4.523-3.043
			c1.305-1.303,2.311-2.803,3.014-4.494c0.707-1.693,1.061-3.492,1.061-5.396s-0.363-3.703-1.086-5.395
			c-0.723-1.693-1.736-3.193-3.041-4.498c-1.27-1.27-2.77-2.266-4.498-2.988c-1.727-0.721-3.543-1.086-5.447-1.086
			c-1.869,0-3.668,0.365-5.395,1.086c-1.731,0.723-3.227,1.719-4.497,2.988c-1.308,1.305-2.32,2.805-3.042,4.498
			c-0.724,1.691-1.083,3.49-1.083,5.395s0.359,3.703,1.083,5.396c0.722,1.691,1.734,3.191,3.042,4.494
			c1.304,1.307,2.803,2.32,4.497,3.043c1.691,0.723,3.488,1.084,5.395,1.084C195.759,256.397,197.583,256.036,199.294,255.313z"/>
		<path fill="#D32F2F" d="M228.468,265.866c-1.199-1.127-1.799-2.504-1.799-4.127v-18.143c0-3.633,0.705-7.105,2.117-10.422
			c1.41-3.314,3.367-6.225,5.869-8.729c2.506-2.504,5.398-4.451,8.678-5.846c3.28-1.393,6.733-2.088,10.366-2.088h0.107
			c1.906,0,3.395,0.539,4.471,1.613c1.076,1.076,1.613,2.479,1.613,4.205c0,0.813-0.16,1.58-0.477,2.301
			c-0.316,0.725-0.74,1.35-1.268,1.879c-1.201,1.129-2.648,1.691-4.34,1.691h-0.264c-1.977,0.037-3.871,0.441-5.688,1.217
			c-1.816,0.777-3.43,1.852-4.84,3.227c-1.41,1.412-2.521,3.016-3.332,4.814c-0.813,1.799-1.234,3.721-1.27,5.766v18.514
			c0,1.588-0.547,2.963-1.639,4.127c-0.531,0.529-1.148,0.943-1.855,1.242c-0.703,0.301-1.443,0.451-2.219,0.451
			C231.077,267.56,229.667,266.995,228.468,265.866z"/>
		<path fill="#D32F2F" d="M277.267,266.157c-3.121-1.324-5.883-3.182-8.277-5.58c-2.4-2.363-4.27-5.113-5.609-8.254
			c-1.342-3.137-2.012-6.451-2.012-9.943s0.67-6.816,2.012-9.973c1.34-3.154,3.209-5.932,5.609-8.33
			c2.395-2.396,5.156-4.258,8.277-5.582c3.121-1.32,6.428-1.982,9.918-1.982c3.492,0,6.814,0.67,9.973,2.01
			c3.154,1.34,5.914,3.193,8.277,5.555c2.361,2.398,4.213,5.176,5.555,8.33c1.34,3.156,2.01,6.48,2.01,9.973
			s-0.662,6.795-1.982,9.918c-1.324,3.121-3.186,5.881-5.582,8.279c-2.363,2.363-5.123,4.215-8.277,5.555
			c-3.158,1.34-6.48,2.008-9.973,2.008C283.695,268.14,280.388,267.481,277.267,266.157z M292.66,255.313
			c1.711-0.723,3.219-1.736,4.523-3.043c1.305-1.303,2.311-2.803,3.016-4.494c0.705-1.693,1.059-3.492,1.059-5.396
			s-0.365-3.703-1.084-5.395c-0.725-1.693-1.74-3.193-3.043-4.498c-1.271-1.27-2.768-2.266-4.498-2.988
			c-1.727-0.721-3.543-1.086-5.447-1.086c-1.869,0-3.67,0.365-5.396,1.086c-1.727,0.723-3.227,1.719-4.496,2.988
			c-1.305,1.305-2.318,2.805-3.041,4.498c-0.723,1.691-1.084,3.49-1.084,5.395s0.361,3.703,1.084,5.396
			c0.723,1.691,1.736,3.191,3.041,4.494c1.305,1.307,2.803,2.32,4.496,3.043s3.492,1.084,5.396,1.084
			C289.125,256.397,290.947,256.036,292.66,255.313z"/>
		<path fill="#D32F2F" d="M335.269,266.21c-3.033-1.287-5.695-3.094-7.986-5.42c-2.293-2.328-4.074-5.002-5.342-8.016
			c-1.271-3.016-1.906-6.217-1.906-9.602v-20.684c0-1.621,0.563-2.996,1.693-4.125c1.129-1.129,2.502-1.693,4.127-1.693
			c1.656,0,3.047,0.564,4.178,1.693c1.164,1.162,1.746,2.539,1.746,4.125v20.789c0,1.836,0.334,3.545,1.004,5.133
			c0.67,1.586,1.607,2.979,2.803,4.178c1.201,1.199,2.596,2.133,4.182,2.803c1.584,0.67,3.297,1.006,5.131,1.006
			c1.797,0,3.438-0.336,4.92-1.006c1.48-0.67,2.768-1.621,3.859-2.855c1.059-1.164,1.869-2.549,2.434-4.154
			c0.564-1.602,0.846-3.34,0.846-5.209v-20.684c0-0.773,0.162-1.523,0.479-2.248c0.314-0.723,0.756-1.348,1.322-1.877
			c1.234-1.164,2.627-1.746,4.178-1.746c1.588,0,2.961,0.582,4.127,1.746c0.494,0.529,0.889,1.154,1.189,1.877
			c0.301,0.725,0.451,1.475,0.451,2.248v20.684c0,3.422-0.592,6.631-1.773,9.627c-1.182,2.998-2.85,5.662-5,7.99
			c-2.15,2.326-4.689,4.133-7.617,5.42c-2.926,1.289-6.066,1.93-9.414,1.93C341.511,268.14,338.302,267.499,335.269,266.21z"/>
		<path fill="#D32F2F" d="M377.722,265.921c-1.008-1.096-1.51-2.539-1.51-4.34c0-1.762,0.494-3.164,1.482-4.205
			c0.986-1.039,2.291-1.561,3.912-1.561h20.104c1.162,0,2.201-0.352,3.121-1.057c1.021-0.777,1.531-1.852,1.531-3.229
			c0-1.408-0.51-2.449-1.531-3.119c-0.92-0.564-2.029-0.85-3.334-0.85H392.4c-2.152,0-4.16-0.42-6.029-1.268
			c-1.871-0.846-3.492-2.027-4.869-3.543c-1.373-1.518-2.451-3.236-3.227-5.16c-0.773-1.92-1.162-3.92-1.162-6.002
			c0-2.01,0.395-3.941,1.189-5.793c0.793-1.852,1.895-3.465,3.305-4.842c1.412-1.41,3.043-2.502,4.895-3.277
			s3.816-1.164,5.898-1.164h17.35c1.658,0,3.051,0.512,4.18,1.535c1.127,1.021,1.693,2.414,1.693,4.178
			c0,1.729-0.547,3.176-1.641,4.338c-1.131,1.127-2.451,1.691-3.967,1.691h-17.457c-1.023,0-1.896,0.371-2.619,1.111
			s-1.084,1.623-1.084,2.646c0,1.129,0.371,2.035,1.111,2.723c0.74,0.689,1.604,1.031,2.592,1.031h9.998
			c2.188,0,4.24,0.424,6.162,1.271c1.922,0.846,3.588,2.027,5,3.543c1.375,1.482,2.451,3.201,3.227,5.156
			c0.775,1.959,1.164,3.979,1.164,6.059c0,2.082-0.371,4.072-1.111,5.977s-1.799,3.582-3.176,5.025
			c-1.41,1.482-3.066,2.637-4.971,3.465c-1.904,0.83-3.932,1.262-6.084,1.297h-21.16
			C380.021,267.56,378.726,267.013,377.722,265.921z"/>
	</g>
	<g>
		<g>
			<path fill="#D32F2F" d="M111.235,93.907c0-9.27,7.51-16.779,16.78-16.779c9.269,0,16.779,7.51,16.779,16.779
				c0,9.266-7.51,16.78-16.779,16.78C118.745,110.687,111.235,103.173,111.235,93.907z"/>
		</g>
		<g>
			<circle fill="#D32F2F" cx="290.093" cy="93.907" r="16.779"/>
		</g>
		<g>
			<path fill="#D32F2F" d="M192.692,173.648c0-9.266,7.514-16.78,16.779-16.78c9.27,0,16.779,7.515,16.779,16.78
				c0,9.271-7.51,16.78-16.779,16.78C200.206,190.429,192.692,182.919,192.692,173.648z"/>
		</g>
		<path fill="#F44336" d="M187.534,161.296c-21.777-7.086-38.929-24.417-45.741-46.313c-3.96,2.595-8.687,4.114-13.777,4.114
			c-3.373,0-6.586-0.674-9.527-1.877c8.541,33.424,35.014,59.652,68.563,67.876c-1.756-3.437-2.769-7.32-2.769-11.447
			C184.283,169.156,185.474,164.948,187.534,161.296z"/>
		<path fill="#F44336" d="M277.011,115.403c-6.9,21.697-23.965,38.854-45.6,45.893c2.059,3.652,3.25,7.86,3.25,12.353
			c0,4.128-1.01,8.011-2.768,11.448c33.69-8.254,60.239-34.672,68.661-68.295c-3.186,1.459-6.723,2.295-10.461,2.295
			C285.298,119.097,280.828,117.731,277.011,115.403z"/>
		<path fill="#F44336" d="M141.792,72.832c8.972-28.848,35.879-49.794,67.679-49.794c3.475,0,6.889,0.262,10.225,0.747v38.479
			c-3.221-1.041-6.654-1.617-10.225-1.617c-18.371,0-33.261,14.89-33.261,33.261c0,18.372,14.89,33.261,33.261,33.261
			s33.262-14.89,33.262-33.261v-62.58c16.188,8.623,28.602,23.352,34.25,41.101c3.822-2.338,8.301-3.711,13.109-3.711
			c3.738,0,7.275,0.835,10.461,2.293C290.333,30.219,253.437,0,209.472,0c-43.811,0.004-80.612,30.01-90.983,70.593
			c2.941-1.202,6.154-1.876,9.527-1.876C133.105,68.717,137.832,70.237,141.792,72.832z"/>
	</g>
</g>
</svg>
